<?xml version="1.0" standalone="no"?><!DOCTYPE svg PUBLIC "-//W3C//DTD SVG 1.1//EN" "http://www.w3.org/Graphics/SVG/1.1/DTD/svg11.dtd"><svg t="1678686096402" class="icon" viewBox="0 0 1024 1024" version="1.1" xmlns="http://www.w3.org/2000/svg" p-id="2744" xmlns:xlink="http://www.w3.org/1999/xlink" width="200" height="200"><path d="M513.02 939.31l-21.492-30.306c-10.948-15.436-268.29-380.085-268.29-528.473 0-156.033 129.997-282.967 289.783-282.967 159.787 0 289.786 126.934 289.786 282.967 0 148.416-257.344 513.038-268.302 528.474l-21.484 30.305z m0-789.06c-130.729 0-237.094 103.306-237.094 230.279 0 99.716 155.208 347.308 237.095 467.092C594.91 727.838 750.118 480.219 750.118 380.53c0-126.974-106.352-230.28-237.097-230.28z" p-id="2745"></path><path d="M521.28 472.99c-57.216 0-103.754-46.538-103.754-103.731 0-57.215 46.538-103.754 103.754-103.754s103.755 46.539 103.755 103.754c0 57.194-46.539 103.732-103.755 103.732z m0-154.796c-28.157 0-51.067 22.91-51.067 51.067 0 28.145 22.91 51.042 51.067 51.042 28.171 0 51.066-22.897 51.066-51.042 0-28.157-22.895-51.067-51.066-51.067z" p-id="2746"></path></svg>